<svg width="720" height="750" viewBox="0 0 720 750" fill="none" xmlns="http://www.w3.org/2000/svg">
<path d="M621.688 377V303.5L696.188 401L539.188 729H480.688L621.688 377Z" fill="white"/>
<path d="M526.688 352.5L597.688 287.5L611.188 380L526.688 352.5Z" fill="white"/>
<path d="M434.688 442.5L441.188 433.5L444.688 430.5L537.688 492.5L461.188 729H384.688L410.688 501.5L434.688 442.5Z" fill="white"/>
<path d="M274.188 730.5H195.688L88.1875 390.5L226.188 434.5L274.188 730.5Z" fill="white"/>
<path d="M179.188 160L298.188 61.5L276.188 165L179.188 160Z" fill="white"/>
<path d="M277.688 181.5L337.688 26.5L498.688 149L456.688 423L441.688 433L372.188 489V734.5H312.188L277.688 181.5Z" fill="white"/>
<path d="M620 246.562L493.438 295.625L516.875 146.25L336.562 0L156.25 145.938L197.812 409.688L86.875 366.25L0 497.812L125 749.688H543.438L635.938 562.812L719.375 398.125L620 246.562ZM597.188 300.312L596.25 368.75L541.25 348.438L597.188 300.312ZM213.125 718.75L150 459.375L103.75 405.625L203.438 446.25L246.562 718.75H213.125ZM200.312 150.312L290.312 75.9375L257.5 154.062L200.312 150.312ZM399.375 718.75L421.563 495.938L441.25 433.125L356.562 482.188V718.75H321.25L291.25 159.688L336.875 40.3125L484.375 158.75L441.25 433.125L506.875 505.625L437.813 718.75H399.375ZM521.875 718.75H495.625L629.688 381.563L628.125 315.938L683.438 400.313L521.875 718.75Z" fill="#5D3FD3"/>
</svg>
